<?xml version="1.0" encoding="UTF-8" standalone="no"?>
<!DOCTYPE svg PUBLIC "-//W3C//DTD SVG 1.1//EN" "http://www.w3.org/Graphics/SVG/1.1/DTD/svg11.dtd">
<svg version="1.1" xmlns="http://www.w3.org/2000/svg" xmlns:xlink="http://www.w3.org/1999/xlink" preserveAspectRatio="xMidYMid meet" viewBox="0 0 640 640" width="640" height="640"><defs><path d="M466.3 78.78C503.81 78.78 534.22 109.19 534.22 146.7C534.22 218.81 534.22 367.2 534.22 439.31C534.22 476.82 503.81 507.23 466.3 507.23C394.2 507.23 245.8 507.23 173.7 507.23C136.19 507.23 105.78 476.82 105.78 439.31C105.78 367.2 105.78 218.81 105.78 146.7C105.78 109.19 136.19 78.78 173.7 78.78C245.8 78.78 394.2 78.78 466.3 78.78Z" id="dLLmTFuSt"></path><path d="M452.84 114.39C478.12 114.39 498.61 134.89 498.61 160.17C498.61 222.46 498.61 363.55 498.61 425.84C498.61 451.13 478.12 471.62 452.84 471.62C390.55 471.62 249.45 471.62 187.16 471.62C161.88 471.62 141.39 451.13 141.39 425.84C141.39 363.55 141.39 222.46 141.39 160.17C141.39 134.89 161.88 114.39 187.16 114.39C249.45 114.39 390.55 114.39 452.84 114.39Z" id="d8IOXfmnR9"></path><path d="M388.83 116.43C436.47 110.81 480.55 152.64 487.3 209.86C505.98 368.3 342.72 467.26 343.24 471.62C343.24 471.62 343.24 471.62 343.24 471.62C342.72 467.26 160.93 408.97 142.26 250.51C135.51 193.3 168.67 142.36 216.31 136.75C263.95 131.13 307.36 167.22 314.1 224.44C307.35 167.23 341.18 122.04 388.83 116.43Z" id="c40AIxTNe"></path></defs><g><g><g><use xlink:href="#dLLmTFuSt" opacity="1" fill="#c4c3a7" fill-opacity="1"></use><g><use xlink:href="#dLLmTFuSt" opacity="1" fill-opacity="0" stroke="#c4c3a7" stroke-width="1" stroke-opacity="1"></use></g></g><g><use xlink:href="#d8IOXfmnR9" opacity="1" fill="#6c91ac" fill-opacity="1"></use></g><g><use xlink:href="#c40AIxTNe" opacity="1" fill="#fb0d29" fill-opacity="1"></use></g></g></g></svg>